<?xml version="1.0" encoding="utf-8"?>
<!-- Svg Vector Icons : http://www.onlinewebfonts.com/icon -->
<!DOCTYPE svg PUBLIC "-//W3C//DTD SVG 1.1//EN" "http://www.w3.org/Graphics/SVG/1.1/DTD/svg11.dtd">
<svg version="1.1" xmlns="http://www.w3.org/2000/svg" xmlns:xlink="http://www.w3.org/1999/xlink" x="0px" y="0px" viewBox="0 0 1000 1000" enable-background="new 0 0 1000 1000" xml:space="preserve">
<metadata> Svg Vector Icons : http://www.onlinewebfonts.com/icon </metadata>
<g><path d="M431.3,706.4c-41.6,38.5-81.9,55.9-119.6,52.3c-50.8-5.1-82.3-48-82.9-48.7c-7.4-10.4-21.8-12.8-32.2-5.5c-10.5,7.4-12.9,21.8-5.6,32.3c1.8,2.5,43.4,60.4,115.4,67.9c5.2,0.5,10.4,0.8,15.6,0.8c46.7,0,94-21.8,140.8-65.1c9.4-8.7,10-23.3,1.3-32.7C455.4,698.3,440.8,697.7,431.3,706.4z"/><path d="M918.1,134.8c-2.6-10.1-6.8-19.6-12.9-28c-16.4-22.8-44.3-35.4-73.8-35.7c-24.3,0.4-47.1,10.3-64.1,28.1c-17.2,18-26.3,41.7-25.6,66.6c0.3,12.1,3,23.9,7.9,34.8L656,292.4l-13.3-12.8c-7.6-7.3-19.2-8.5-28.1-3c-0.7,0.4-68.6,41.4-138.3,44.2c-17.8,0.8-37.5-0.4-58.9-1.6c-19.7-1.1-40.1-2.2-62-2.2c-31.2,0-59.2,2.4-84.8,7.2c-38.4,5.5-74.8,18.1-107.5,36.9c-0.4,0.2-2,1-2.4,1.2c-1.3,0.7-2.4,1.5-3.5,2.4C66.3,419.7,10,519,10,624.9c0,167.6,136.4,304,304,304c70.6,0,139.4-24.8,193.8-69.9c0.5-0.4,1.1-0.8,1.6-1.2c5.4-4.6,10.9-9.7,16.3-14.9c1.9-1.8,3.7-3.6,5.5-5.4c116.2-117.7,241.2-395.4,246.5-407.1c4-8.9,1.9-19.4-5.1-26.2l-2.1-2l92.6-92.6c11.8,4.9,24.7,7.4,37.6,6.9c24.6-0.7,47.4-10.9,64.3-28.8c16.9-17.9,25.8-41.3,25.1-65.8C988.7,178.8,958.7,143.7,918.1,134.8z M498.2,805c-1.5,1.6-3.1,3.1-4.7,4.6c-4.2,4.1-8.4,8-12.6,11.6c-0.5,0.3-0.9,0.7-1.4,1.1c-46.3,38.9-105.1,60.3-165.5,60.3C171.9,882.6,56.3,767,56.3,624.9c0-90.6,48.7-175.7,127.2-221.9c0.5-0.3,1-0.6,1.4-0.9c0.2-0.1,0.5-0.2,0.6-0.3c28.2-16.3,59-26.9,92.5-31.7c23.7-4.4,48.9-6.6,77.2-6.6c20.7,0,40.4,1.1,59.5,2.1c22.6,1.3,43.7,2.4,63.4,1.6c60.8-2.5,118-28.3,144.8-42.2l105.6,101.3C700.9,485.6,593.8,708.1,498.2,805z M931.2,255.8c-8.4,8.9-19.7,14-31.9,14.3c-9.6,0.1-19.2-2.5-27.3-8.1c-9.2-6.4-21.6-5.2-29.6,2.7L737,370.1l-47.5-45.5L794.9,221c8.3-8.1,9.3-21.2,2.3-30.5c-5.7-7.6-8.9-16.6-9.2-26.1c-0.3-12.5,4.2-24.3,12.8-33.3c8.3-8.7,19.4-13.6,31.3-13.8c14.5,0.3,28,5.9,35.5,16.5c8.9,12.4,9.7,30.3,2.2,51.7c-4.2,12.1,2.1,25.3,14.2,29.5c12.1,4.3,25.3-2.1,29.5-14.2c2-5.8,3.5-11.6,4.7-17.3c14.6,7.4,24.9,22.3,25.4,39.5C944,235.3,939.6,246.9,931.2,255.8z"/></g>
</svg>